<svg width="177" height="26" viewBox="0 0 177 26" fill="none" xmlns="http://www.w3.org/2000/svg">
<path d="M0.393005 0.736084V4.02908H6.90001V25.2481H10.5V0.736084H0.393005Z" fill="black"/>
<path d="M17.007 0.735107H12.627V4.02911H17.007V0.735107Z" fill="black"/>
<mask id="mask0_1_1917" style="mask-type:luminance" maskUnits="userSpaceOnUse" x="0" y="0" width="177" height="26">
<path d="M176.149 0.592041H0.393005V25.408H176.149V0.592041Z" fill="white"/>
</mask>
<g mask="url(#mask0_1_1917)">
<path d="M49.824 4.36003C50.5057 4.50825 51.1423 4.81677 51.681 5.26003C52.4404 5.9359 52.9948 6.81148 53.281 7.78703H57.097C56.7602 5.82043 55.8012 4.01384 54.361 2.63303C53.1194 1.46618 51.5213 0.751138 49.824 0.603027V4.36003Z" fill="black"/>
<path d="M49.824 21.6391V25.3891C51.3937 25.2341 52.8846 24.6261 54.115 23.6391C55.6654 22.2752 56.7148 20.4316 57.096 18.4021H53.284C53.0117 19.1811 52.5548 19.8825 51.9522 20.4462C51.3496 21.01 50.6193 21.4193 49.824 21.6391Z" fill="black"/>
<path d="M47.692 21.637C47.2933 21.5537 46.9111 21.4051 46.561 21.197C45.9726 20.9084 45.4592 20.4874 45.061 19.967C44.5641 19.3764 44.242 18.6588 44.131 17.895C43.9083 16.2718 43.821 14.6328 43.87 12.995C43.8221 11.3453 43.9094 9.69448 44.131 8.05903C44.2465 7.30645 44.5684 6.60065 45.061 6.02003C45.4638 5.49527 45.9755 5.06403 46.561 4.75603C46.9179 4.56997 47.2993 4.43531 47.694 4.35603V0.603027C46.3981 0.719034 45.1547 1.17014 44.086 1.91203C42.9258 2.67517 41.9739 3.7151 41.316 4.93803C40.9113 5.66272 40.6403 6.45434 40.516 7.27503C40.3056 9.17266 40.2241 11.0824 40.272 12.991C40.2258 14.8884 40.3073 16.7866 40.516 18.673C40.5823 19.1198 40.6915 19.5592 40.842 19.985C40.9826 20.3184 41.14 20.6714 41.314 21.044C41.9662 22.2609 42.9187 23.2908 44.081 24.036C45.1509 24.7801 46.3932 25.2386 47.69 25.368L47.692 21.637Z" fill="black"/>
<path d="M103.733 21.635C103.338 21.5512 102.96 21.4032 102.613 21.197C102.025 20.9083 101.511 20.4873 101.113 19.967C100.616 19.3762 100.294 18.6587 100.183 17.895C99.9607 16.2717 99.8734 14.6327 99.922 12.995C99.8745 11.345 99.9618 9.69383 100.183 8.058C100.299 7.30563 100.621 6.59999 101.113 6.019C101.516 5.49487 102.028 5.06404 102.613 4.756C102.966 4.57082 103.343 4.43617 103.733 4.356V0.604004C102.441 0.718688 101.2 1.16661 100.133 1.904C98.9746 2.66368 98.0237 3.69985 97.366 4.919C96.9608 5.64531 96.6899 6.43864 96.566 7.261C96.3554 9.16264 96.2739 11.0764 96.322 12.989C96.2757 14.8863 96.3572 16.7846 96.566 18.671C96.6324 19.1174 96.7415 19.5565 96.892 19.982C97.0326 20.3153 97.19 20.6687 97.364 21.042C98.0162 22.2589 98.9687 23.2888 100.131 24.034C101.198 24.776 102.437 25.2337 103.731 25.364L103.733 21.635Z" fill="black"/>
<path d="M113.06 7.27607C112.957 6.44593 112.674 5.64834 112.23 4.93907C111.597 3.71791 110.666 2.67661 109.523 1.91207C108.438 1.16613 107.177 0.714426 105.865 0.601074V4.35407C106.271 4.43369 106.664 4.56826 107.033 4.75407C107.6 5.06311 108.09 5.49499 108.468 6.01807C108.962 6.60143 109.295 7.30466 109.431 8.05707C109.638 9.69377 109.72 11.3439 109.675 12.9931C109.721 14.6303 109.639 16.2685 109.431 17.8931C109.299 18.6568 108.967 19.3718 108.468 19.9651C108.095 20.4836 107.603 20.9054 107.033 21.1951C106.67 21.404 106.275 21.5532 105.865 21.6371V25.3711C107.178 25.2439 108.436 24.7852 109.523 24.0381C110.667 23.2907 111.597 22.2594 112.223 21.0451C112.67 20.325 112.953 19.5156 113.053 18.6741C113.233 16.7858 113.304 14.8886 113.264 12.9921C113.305 11.0843 113.235 9.17565 113.053 7.27607" fill="black"/>
<path d="M175.453 3.06609C173.519 1.63467 171.222 0.776603 168.823 0.590088V4.33009C170.484 4.55206 172.069 5.16333 173.449 6.11409L175.453 3.06609Z" fill="black"/>
<path d="M166.316 14.584L166.691 14.639V10.818C165.829 10.6754 165.032 10.2731 164.405 9.66504C163.898 9.15501 163.61 8.46642 163.605 7.74704C163.581 7.24158 163.676 6.73759 163.883 6.27572C164.09 5.81384 164.402 5.40701 164.795 5.08804C165.348 4.66753 166 4.39588 166.688 4.29904V0.592041C164.973 0.677034 163.342 1.35866 162.076 2.51904C161.386 3.18879 160.845 3.9967 160.489 4.88988C160.133 5.78305 159.97 6.74135 160.01 7.70204C159.968 9.36933 160.555 10.9914 161.655 12.245C162.887 13.5445 164.536 14.372 166.314 14.584" fill="black"/>
<path d="M166.691 21.6801C164.632 21.4825 162.684 20.6545 161.113 19.3091L158.754 22.1031C160.952 24.0663 163.749 25.2293 166.691 25.4031V21.6801Z" fill="black"/>
<path d="M174.569 13.738C173.31 12.3008 171.539 11.4129 169.634 11.264C169.348 11.2273 169.078 11.1916 168.823 11.157V14.948L169.46 15.038C171.545 15.4086 172.577 16.5086 172.555 18.338C172.516 20.324 171.272 21.4436 168.823 21.697V25.41C173.596 25.0706 176.038 22.706 176.149 18.316C176.175 16.6523 175.616 15.0314 174.569 13.738Z" fill="black"/>
<path d="M22.721 21.3351L24.309 16.4721H24.286L26.609 9.22213L25.019 4.20312L17.61 25.2481H21.42L22.721 21.3351Z" fill="black"/>
<path d="M29.252 0.735107H26.24L26.197 0.859107L27.745 5.75011H27.787L31.223 16.4741H26.552L25.477 19.7661H32.252L34.092 25.2481H37.886L29.252 0.735107Z" fill="black"/>
<path d="M88.602 20.3601L93.347 0.736084H89.553L86.791 13.5841L88.602 20.3601Z" fill="black"/>
<path d="M85.808 18.1611H85.743L81.152 0.735107H78.547L75.108 13.7351L76.527 20.3671L79.817 7.56711H79.882L84.409 25.2461H87.421L87.554 24.6931L85.808 18.1611Z" fill="black"/>
<path d="M73.874 18.1611L70.144 0.735107H66.35L72.274 25.2481H75.274L75.338 25.0021L73.874 18.1611Z" fill="black"/>
<path d="M121.728 4.02908V0.736084H118.128V25.2481H121.728V4.02908Z" fill="black"/>
<path d="M130.018 14.3702C131.416 13.8886 132.619 12.9656 133.446 11.7404C134.273 10.5153 134.679 9.05439 134.603 7.57816C134.628 6.58593 134.43 5.60077 134.022 4.69573C133.615 3.7907 133.009 2.98902 132.249 2.35016C130.889 1.23573 129.167 0.660846 127.41 0.735161H123.86V4.02916H127.377C128.32 3.96536 129.256 4.23391 130.022 4.78816C130.428 5.12312 130.749 5.55019 130.957 6.03387C131.165 6.51756 131.254 7.0439 131.218 7.56916C131.237 8.09837 131.145 8.62569 130.947 9.11701C130.75 9.60832 130.451 10.0527 130.071 10.4213C129.691 10.79 129.238 11.0747 128.74 11.2571C128.243 11.4395 127.713 11.5155 127.185 11.4802H123.864V14.7722H126.336L131.25 25.2482H135.518L130.018 14.3702Z" fill="black"/>
<path d="M142.726 13.3621V0.735107H139.126V25.2481H142.726V13.3621Z" fill="black"/>
<path d="M149.233 10.4001L156.841 0.735107H152.573L144.858 10.7001V15.4721L146.898 13.2611L153.368 25.2481H157.639L149.233 10.4001Z" fill="black"/>
</g>
</svg>
